<svg width="16" height="16" viewBox="0 0 16 16" fill="none" xmlns="http://www.w3.org/2000/svg">
<path d="M8 1.5C4.41607 1.5 1.5 4.41607 1.5 8C1.5 11.5839 4.41607 14.5 8 14.5C11.5839 14.5 14.5 11.5839 14.5 8C14.5 4.41607 11.5839 1.5 8 1.5ZM8 2.5C11.0435 2.5 13.5 4.95651 13.5 8C13.5 11.0435 11.0435 13.5 8 13.5C4.95651 13.5 2.5 11.0435 2.5 8C2.5 4.95651 4.95651 2.5 8 2.5ZM8 4.5C7.86739 4.5 7.74021 4.55268 7.64645 4.64645C7.55268 4.74021 7.5 4.86739 7.5 5C7.5 5.13261 7.55268 5.25979 7.64645 5.35355C7.74021 5.44732 7.86739 5.5 8 5.5C8.13261 5.5 8.25979 5.44732 8.35355 5.35355C8.44732 5.25979 8.5 5.13261 8.5 5C8.5 4.86739 8.44732 4.74021 8.35355 4.64645C8.25979 4.55268 8.13261 4.5 8 4.5ZM7.99219 6.49316C7.85975 6.49523 7.73354 6.54976 7.64127 6.64479C7.54899 6.73981 7.49819 6.86756 7.5 7V11C7.49906 11.0663 7.5113 11.132 7.53601 11.1935C7.56072 11.255 7.5974 11.311 7.64392 11.3582C7.69044 11.4053 7.74588 11.4428 7.80701 11.4684C7.86814 11.494 7.93374 11.5071 8 11.5071C8.06626 11.5071 8.13186 11.494 8.19299 11.4684C8.25412 11.4428 8.30956 11.4053 8.35608 11.3582C8.4026 11.311 8.43928 11.255 8.46399 11.1935C8.4887 11.132 8.50094 11.0663 8.5 11V7C8.50092 6.93311 8.4884 6.86671 8.46319 6.80474C8.43798 6.74277 8.4006 6.68648 8.35324 6.63922C8.30589 6.59196 8.24954 6.55469 8.18752 6.5296C8.1255 6.50451 8.05908 6.49212 7.99219 6.49316Z" fill="black"/>
</svg>
