<svg width="16" height="16" viewBox="0 0 16 16" fill="none" xmlns="http://www.w3.org/2000/svg">
    <path d="M4.19252 2.6665C3.34302 2.6665 2.66797 3.35346 2.66797 4.19106V9.5229C2.66797 10.3605 3.34153 11.0467 4.19252 11.0467H4.95368V11.8094C4.95368 12.647 5.62724 13.3332 6.47824 13.3332H11.8101C12.6611 13.3332 13.3346 12.647 13.3346 11.8094V6.47752C13.3346 5.63991 12.6596 4.95296 11.8101 4.95296H11.0489V4.19106C11.0489 3.35346 10.3739 2.6665 9.52437 2.6665H4.19252ZM4.19252 3.42915H9.52437C9.95305 3.42915 10.2863 3.76981 10.2863 4.19106V9.5229C10.2863 9.95159 9.94412 10.2848 9.52437 10.2848H4.19252C3.77277 10.2848 3.43062 9.95159 3.43062 9.5229V4.19106C3.43062 3.76981 3.76384 3.42915 4.19252 3.42915ZM11.0489 5.71561H11.8101C12.2388 5.71561 12.572 6.05627 12.572 6.47752V11.8094C12.572 12.238 12.2298 12.5713 11.8101 12.5713H6.47824C6.05848 12.5713 5.71633 12.238 5.71633 11.8094V11.0467H9.52437C10.3754 11.0467 11.0489 10.3605 11.0489 9.5229V5.71561Z" fill="black" fill-opacity="0.8"/>
</svg>
