<svg width="18" height="18" viewBox="0 0 18 18" fill="none" xmlns="http://www.w3.org/2000/svg">
<path d="M3.9375 2.25C3.01219 2.25 2.25 3.01219 2.25 3.9375V5.0625C2.25 5.98781 3.01219 6.75 3.9375 6.75H6.9375C7.86281 6.75 8.625 5.98781 8.625 5.0625V3.9375C8.625 3.01219 7.86281 2.25 6.9375 2.25H3.9375ZM11.0625 2.25C10.1372 2.25 9.375 3.01219 9.375 3.9375V8.8125C9.375 9.73781 10.1372 10.5 11.0625 10.5H14.0625C14.9878 10.5 15.75 9.73781 15.75 8.8125V3.9375C15.75 3.01219 14.9878 2.25 14.0625 2.25H11.0625ZM3.9375 3.375H6.9375C7.25494 3.375 7.5 3.62006 7.5 3.9375V5.0625C7.5 5.37994 7.25494 5.625 6.9375 5.625H3.9375C3.62006 5.625 3.375 5.37994 3.375 5.0625V3.9375C3.375 3.62006 3.62006 3.375 3.9375 3.375ZM11.0625 3.375H14.0625C14.3799 3.375 14.625 3.62006 14.625 3.9375V8.8125C14.625 9.12994 14.3799 9.375 14.0625 9.375H11.0625C10.7451 9.375 10.5 9.12994 10.5 8.8125V3.9375C10.5 3.62006 10.7451 3.375 11.0625 3.375ZM3.9375 7.5C3.01219 7.5 2.25 8.26219 2.25 9.1875V14.0625C2.25 14.9878 3.01219 15.75 3.9375 15.75H6.9375C7.86281 15.75 8.625 14.9878 8.625 14.0625V9.1875C8.625 8.26219 7.86281 7.5 6.9375 7.5H3.9375ZM3.9375 8.625H6.9375C7.25494 8.625 7.5 8.87006 7.5 9.1875V14.0625C7.5 14.3799 7.25494 14.625 6.9375 14.625H3.9375C3.62006 14.625 3.375 14.3799 3.375 14.0625V9.1875C3.375 8.87006 3.62006 8.625 3.9375 8.625ZM11.0625 11.25C10.1372 11.25 9.375 12.0122 9.375 12.9375V14.0625C9.375 14.9878 10.1372 15.75 11.0625 15.75H14.0625C14.9878 15.75 15.75 14.9878 15.75 14.0625V12.9375C15.75 12.0122 14.9878 11.25 14.0625 11.25H11.0625ZM11.0625 12.375H14.0625C14.3799 12.375 14.625 12.6201 14.625 12.9375V14.0625C14.625 14.3799 14.3799 14.625 14.0625 14.625H11.0625C10.7451 14.625 10.5 14.3799 10.5 14.0625V12.9375C10.5 12.6201 10.7451 12.375 11.0625 12.375Z" fill="black" fill-opacity="0.6"/>
</svg>
