<svg width="14" height="14" viewBox="0 0 14 14" fill="none" xmlns="http://www.w3.org/2000/svg">
<path d="M1.9375 0.25C1.01219 0.25 0.25 1.01219 0.25 1.9375V3.0625C0.25 3.98781 1.01219 4.75 1.9375 4.75H4.9375C5.86281 4.75 6.625 3.98781 6.625 3.0625V1.9375C6.625 1.01219 5.86281 0.25 4.9375 0.25H1.9375ZM9.0625 0.25C8.13719 0.25 7.375 1.01219 7.375 1.9375V6.8125C7.375 7.73781 8.13719 8.5 9.0625 8.5H12.0625C12.9878 8.5 13.75 7.73781 13.75 6.8125V1.9375C13.75 1.01219 12.9878 0.25 12.0625 0.25H9.0625ZM1.9375 1.375H4.9375C5.25494 1.375 5.5 1.62006 5.5 1.9375V3.0625C5.5 3.37994 5.25494 3.625 4.9375 3.625H1.9375C1.62006 3.625 1.375 3.37994 1.375 3.0625V1.9375C1.375 1.62006 1.62006 1.375 1.9375 1.375ZM9.0625 1.375H12.0625C12.3799 1.375 12.625 1.62006 12.625 1.9375V6.8125C12.625 7.12994 12.3799 7.375 12.0625 7.375H9.0625C8.74506 7.375 8.5 7.12994 8.5 6.8125V1.9375C8.5 1.62006 8.74506 1.375 9.0625 1.375ZM1.9375 5.5C1.01219 5.5 0.25 6.26219 0.25 7.1875V12.0625C0.25 12.9878 1.01219 13.75 1.9375 13.75H4.9375C5.86281 13.75 6.625 12.9878 6.625 12.0625V7.1875C6.625 6.26219 5.86281 5.5 4.9375 5.5H1.9375ZM1.9375 6.625H4.9375C5.25494 6.625 5.5 6.87006 5.5 7.1875V12.0625C5.5 12.3799 5.25494 12.625 4.9375 12.625H1.9375C1.62006 12.625 1.375 12.3799 1.375 12.0625V7.1875C1.375 6.87006 1.62006 6.625 1.9375 6.625ZM9.0625 9.25C8.13719 9.25 7.375 10.0122 7.375 10.9375V12.0625C7.375 12.9878 8.13719 13.75 9.0625 13.75H12.0625C12.9878 13.75 13.75 12.9878 13.75 12.0625V10.9375C13.75 10.0122 12.9878 9.25 12.0625 9.25H9.0625ZM9.0625 10.375H12.0625C12.3799 10.375 12.625 10.6201 12.625 10.9375V12.0625C12.625 12.3799 12.3799 12.625 12.0625 12.625H9.0625C8.74506 12.625 8.5 12.3799 8.5 12.0625V10.9375C8.5 10.6201 8.74506 10.375 9.0625 10.375Z" fill="black"/>
</svg>
