<svg width="24" height="24" viewBox="0 0 24 24" fill="none" xmlns="http://www.w3.org/2000/svg">
<path d="M11.9863 2.23935C11.7876 2.24245 11.5983 2.32425 11.4599 2.46678C11.3215 2.60932 11.2453 2.80094 11.248 2.9996V3.73788C9.39184 3.90604 7.58213 4.69671 6.16498 6.11386C4.74116 7.53768 3.95038 9.35774 3.78754 11.2232H3.02435C2.92497 11.2218 2.8263 11.2402 2.73407 11.2773C2.64185 11.3143 2.5579 11.3693 2.48713 11.4391C2.41635 11.5089 2.36015 11.5921 2.32179 11.6837C2.28343 11.7754 2.26367 11.8738 2.26367 11.9732C2.26367 12.0726 2.28343 12.171 2.32179 12.2627C2.36015 12.3544 2.41635 12.4376 2.48713 12.5074C2.5579 12.5771 2.64185 12.6322 2.73407 12.6692C2.8263 12.7063 2.92497 12.7246 3.02435 12.7232H3.789C3.96176 14.5709 4.75414 16.3705 6.16498 17.7813C7.58213 19.1985 9.39198 19.9894 11.248 20.1573V20.9996C11.2466 21.099 11.2649 21.1977 11.302 21.2899C11.3391 21.3821 11.3941 21.4661 11.4639 21.5368C11.5336 21.6076 11.6168 21.6638 11.7085 21.7022C11.8002 21.7405 11.8986 21.7603 11.998 21.7603C12.0974 21.7603 12.1958 21.7405 12.2875 21.7022C12.3792 21.6638 12.4623 21.6076 12.5321 21.5368C12.6019 21.4661 12.6569 21.3821 12.694 21.2899C12.731 21.1977 12.7494 21.099 12.748 20.9996V20.1573C14.604 19.9894 16.4138 19.1985 17.831 17.7813C19.2351 16.3772 20.0262 14.588 20.204 12.7496H20.998C21.0974 12.751 21.196 12.7326 21.2883 12.6956C21.3805 12.6585 21.4644 12.6035 21.5352 12.5337C21.606 12.4639 21.6622 12.3808 21.7006 12.2891C21.7389 12.1974 21.7587 12.099 21.7587 11.9996C21.7587 11.9002 21.7389 11.8018 21.7006 11.7101C21.6622 11.6184 21.606 11.5353 21.5352 11.4655C21.4644 11.3957 21.3805 11.3407 21.2883 11.3036C21.196 11.2666 21.0974 11.2482 20.998 11.2496H20.2099C20.0522 9.37492 19.2615 7.54437 17.831 6.11386C16.4138 4.69671 14.6041 3.90604 12.748 3.73788V2.9996C12.7494 2.89926 12.7306 2.79966 12.6928 2.70671C12.655 2.61375 12.5989 2.52933 12.5279 2.45844C12.4568 2.38755 12.3723 2.33163 12.2793 2.294C12.1862 2.25637 12.0866 2.23778 11.9863 2.23935ZM11.8823 5.19833C11.958 5.21001 12.0351 5.21001 12.1108 5.19833C13.7988 5.22656 15.4782 5.88219 16.7704 7.17441C18.0716 8.47561 18.7284 10.1696 18.748 11.8692C18.7349 11.9462 18.7339 12.0248 18.7451 12.1021C18.7066 13.7756 18.0518 15.438 16.7704 16.7193C15.4775 18.0123 13.7967 18.6679 12.1078 18.6954C12.0676 18.6892 12.027 18.6862 11.9863 18.6866C11.9519 18.6872 11.9177 18.6901 11.8837 18.6954C10.1964 18.6668 8.51736 18.0112 7.22553 16.7193C4.58342 14.0772 4.58342 9.81651 7.22553 7.17441C8.51699 5.88294 10.1952 5.22727 11.8823 5.19833ZM11.998 10.4469C11.1692 10.4469 10.498 11.1181 10.498 11.9469C10.498 12.7756 11.1692 13.4469 11.998 13.4469C12.8267 13.4469 13.498 12.7756 13.498 11.9469C13.498 11.1181 12.8267 10.4469 11.998 10.4469Z" fill="black" fill-opacity="0.6"/>
</svg>
