<svg width="116" height="24" viewBox="0 0 116 24" fill="none" xmlns="http://www.w3.org/2000/svg">
<path d="M12.6602 13.5039L7.2334 13.5039L0.600705 23.1259L6.02746 23.1259L12.6602 13.5039Z" fill="black"/>
<path d="M24.7227 3.88184L19.2959 3.88184L12.6632 13.5038L18.09 13.5038L24.7227 3.88184Z" fill="black"/>
<ellipse cx="3.01486" cy="3.00688" rx="3.01486" ry="3.00688" transform="matrix(-1 0 0 1 10.25 0.875)" fill="black"/>
<path d="M112.307 18.7969C111.393 18.7969 110.721 18.5573 110.289 18.0781C109.857 17.599 109.641 16.9785 109.641 16.2167V11.1484H106.863L108.16 9.28692H108.752C109.135 9.28692 109.406 9.2132 109.567 9.06576C109.727 8.90603 109.807 8.62957 109.807 8.2364V5.93262H112.011V9.28692H115.899V11.1484H112.011V16.9355H115.899V18.7969H112.307Z" fill="black"/>
<path d="M96.582 18.7966V9.28659H98.952V10.9637H99.0446C99.2545 10.4477 99.5754 10.0054 100.007 9.63677C100.452 9.25588 101.063 9.06543 101.84 9.06543C102.779 9.06543 103.538 9.37874 104.118 10.0054C104.71 10.6197 105.007 11.5044 105.007 12.6593V18.7966H102.637V12.9911C102.637 11.6149 102.038 10.9269 100.841 10.9269C100.594 10.9269 100.359 10.9576 100.137 11.019C99.9149 11.0805 99.7112 11.1788 99.526 11.3139C99.3532 11.4368 99.2113 11.5904 99.1002 11.7747C99.0014 11.959 98.952 12.1801 98.952 12.4382V18.7966H96.582Z" fill="black"/>
<path d="M90.0671 19.0178C89.3018 19.0178 88.6229 18.901 88.0304 18.6676C87.4379 18.4341 86.938 18.1024 86.5306 17.6723C86.1356 17.2423 85.8332 16.7263 85.6234 16.1242C85.4135 15.5099 85.3086 14.8218 85.3086 14.06C85.3086 13.286 85.4135 12.5917 85.6234 11.9774C85.8455 11.3631 86.1541 10.8409 86.5491 10.4108C86.9442 9.9808 87.4194 9.64905 87.9749 9.4156C88.5427 9.18215 89.1784 9.06543 89.882 9.06543C90.5732 9.06543 91.1966 9.18215 91.7521 9.4156C92.3075 9.63677 92.7766 9.95622 93.1593 10.374C93.5543 10.7917 93.8567 11.2955 94.0665 11.8853C94.2764 12.475 94.3813 13.1262 94.3813 13.8389V14.6129H87.6786V14.8525C87.6786 15.5406 87.8946 16.0996 88.3267 16.5297C88.7587 16.9474 89.3635 17.1563 90.1412 17.1563C90.7337 17.1563 91.2398 17.0396 91.6595 16.8061C92.0915 16.5604 92.4495 16.2409 92.7334 15.8478L94.085 17.1932C93.7394 17.6969 93.2333 18.127 92.5668 18.4833C91.9125 18.8396 91.0793 19.0178 90.0671 19.0178ZM89.9005 10.7979C89.2339 10.7979 88.697 11.0067 88.2896 11.4245C87.8823 11.8423 87.6786 12.3952 87.6786 13.0832V13.2122H92.0113V13.0464C92.0113 12.3583 91.82 11.8115 91.4373 11.4061C91.067 11.0006 90.5547 10.7979 89.9005 10.7979Z" fill="black"/>
<path d="M75.6016 16.935H78.7492V11.1479H75.6016L76.8989 9.28647H81.1192V16.935H84.0447V18.7965H75.6016V16.935Z" fill="black"/>
<path d="M78.0333 6.50949C78.0333 5.66126 78.7241 4.97363 79.5763 4.97363C80.4284 4.97363 81.1192 5.66126 81.1192 6.50949C81.1192 7.35771 80.4284 8.04534 79.5763 8.04534C78.7241 8.04534 78.0333 7.35771 78.0333 6.50949Z" fill="black"/>
<path d="M70.4646 17.1193H70.335C70.0757 17.6968 69.7178 18.1576 69.261 18.5016C68.8167 18.8456 68.2242 19.0176 67.4835 19.0176C66.9404 19.0176 66.4405 18.9194 65.9838 18.7228C65.5394 18.5139 65.1567 18.2067 64.8358 17.8013C64.5148 17.3835 64.268 16.8613 64.0952 16.2347C63.9223 15.6081 63.8359 14.877 63.8359 14.0415C63.8359 12.3705 64.1692 11.1234 64.8358 10.3001C65.5024 9.47693 66.3849 9.06532 67.4835 9.06532C68.2242 9.06532 68.8167 9.23734 69.261 9.58137C69.7178 9.9254 70.0757 10.3862 70.335 10.9636H70.4646V4.97363H72.8346V18.7965H70.4646V17.1193ZM68.4834 17.1378C68.7549 17.1378 69.008 17.107 69.2425 17.0456C69.4894 16.9719 69.6992 16.8736 69.8721 16.7507C70.0572 16.6156 70.1992 16.4497 70.2979 16.2531C70.409 16.0442 70.4646 15.8046 70.4646 15.5343V12.5486C70.4646 12.2783 70.409 12.0449 70.2979 11.8483C70.1992 11.6394 70.0572 11.4735 69.8721 11.3507C69.6992 11.2155 69.4894 11.1172 69.2425 11.0558C69.008 10.9821 68.7549 10.9452 68.4834 10.9452C67.7921 10.9452 67.2552 11.1541 66.8725 11.5718C66.5022 11.9896 66.317 12.5609 66.317 13.2858V14.7971C66.317 15.522 66.5022 16.0934 66.8725 16.5111C67.2552 16.9289 67.7921 17.1378 68.4834 17.1378Z" fill="black"/>
<path d="M60.696 18.7966C60.1158 18.7966 59.6653 18.6553 59.3443 18.3727C59.0357 18.0778 58.8506 17.6723 58.7889 17.1563H58.6963C58.5235 17.7461 58.184 18.2068 57.6779 18.5386C57.1718 18.858 56.5485 19.0178 55.8078 19.0178C54.845 19.0178 54.0797 18.7659 53.5119 18.2621C52.9441 17.7584 52.6602 17.058 52.6602 16.1611C52.6602 14.2443 54.0735 13.286 56.9003 13.286H58.5852V12.6593C58.5852 12.0573 58.4371 11.6027 58.1408 11.2955C57.8446 10.9883 57.3632 10.8347 56.6966 10.8347C56.0917 10.8347 55.6042 10.9515 55.2338 11.1849C54.8635 11.4184 54.5488 11.7194 54.2895 12.088L52.9379 10.9453C53.2341 10.417 53.7094 9.97465 54.3636 9.61834C55.0302 9.24973 55.8881 9.06543 56.9373 9.06543C58.1964 9.06543 59.1777 9.36031 59.8813 9.95008C60.5972 10.5276 60.9552 11.3938 60.9552 12.5487V17.0273H62.0847V18.7966H60.696ZM56.604 17.3959C57.1718 17.3959 57.6409 17.2669 58.0112 17.0089C58.3939 16.7385 58.5852 16.3761 58.5852 15.9215V14.6498H56.9558C55.6597 14.6498 55.0117 15.0553 55.0117 15.8662V16.2348C55.0117 16.6157 55.1536 16.9044 55.4375 17.101C55.7214 17.2976 56.1103 17.3959 56.604 17.3959Z" fill="black"/>
<path d="M41.7773 16.9357H44.1474V11.1486H41.7773L43.0726 9.28711H46.5174V11.8858H46.6655C46.7519 11.554 46.8692 11.2346 47.0173 10.9274C47.1778 10.6079 47.3753 10.3315 47.6098 10.098C47.8567 9.8523 48.1529 9.65571 48.4986 9.50827C48.8442 9.36083 49.2577 9.28711 49.7391 9.28711H50.776V11.4987H48.8133C48.0974 11.4987 47.5357 11.7076 47.1284 12.1254C46.721 12.5431 46.5174 13.0776 46.5174 13.7288V16.9357H49.8317V18.7971H41.7773V16.9357Z" fill="black"/>
<path d="M36.6321 16.9051H36.4679C36.3448 17.1776 36.1944 17.4436 36.0166 17.7031C35.8388 17.9626 35.6199 18.1897 35.3601 18.3844C35.1002 18.579 34.7924 18.7347 34.4368 18.8515C34.0949 18.9683 33.6983 19.0267 33.2469 19.0267C31.7971 19.0267 30.6961 18.4233 29.9438 17.2165C29.2052 15.9968 28.8359 14.2904 28.8359 12.0975C28.8359 9.78774 29.2736 8.023 30.149 6.80325C31.0243 5.58351 32.3715 4.97363 34.1906 4.97363C34.9019 4.97363 35.5242 5.06447 36.0576 5.24613C36.6047 5.42779 37.0697 5.68083 37.4527 6.00523C37.8493 6.32963 38.1708 6.71891 38.417 7.17307C38.6768 7.61426 38.882 8.09437 39.0324 8.61341L36.5705 9.27519C36.4748 8.98972 36.3653 8.71073 36.2423 8.43824C36.1328 8.16574 35.9824 7.93217 35.7909 7.73753C35.6131 7.52991 35.3943 7.36771 35.1344 7.25093C34.8745 7.12117 34.5531 7.05629 34.1701 7.05629C33.2811 7.05629 32.6451 7.39366 32.2621 8.06842C31.8792 8.74317 31.6877 9.66447 31.6877 10.8323V13.0123C31.6877 13.5962 31.7287 14.1347 31.8108 14.6278C31.9065 15.1079 32.057 15.5232 32.2621 15.8735C32.4673 16.2239 32.734 16.4964 33.0623 16.691C33.3905 16.8727 33.8008 16.9635 34.2932 16.9635C35.0592 16.9635 35.6404 16.7494 36.0371 16.3212C36.4337 15.88 36.6321 15.322 36.6321 14.6473V13.5378H33.9833L35.263 11.6887H39.0324V18.7931H36.6321V16.9051Z" fill="black"/>
</svg>
