<svg width="336" height="336" viewBox="0 0 336 336" fill="none" xmlns="http://www.w3.org/2000/svg">
<circle cx="168" cy="168" r="167.751" stroke="url(#paint0_linear_4723_31583)" stroke-width="0.497041"/>
<path d="M309.996 165.629C309.996 147.225 306.343 129.001 299.245 111.999C292.147 94.9969 281.744 79.5493 268.63 66.538C255.516 53.5268 239.949 43.2065 222.817 36.1658C205.685 29.125 187.324 25.5014 168.782 25.5014C150.239 25.5014 131.878 29.125 114.746 36.1657C97.6146 43.2065 82.0472 53.5267 68.9335 66.538C55.8197 79.5493 45.4164 94.9968 38.3184 111.999C31.2203 129.001 27.5668 147.225 27.5668 165.629C27.5668 184.033 31.2203 202.256 38.3184 219.259C45.4164 236.261 55.8197 251.708 68.9334 264.72C82.0472 277.731 97.6146 288.051 114.746 295.092C131.878 302.133 150.239 305.756 168.782 305.756C187.324 305.756 205.685 302.133 222.817 295.092C239.949 288.051 255.516 277.731 268.63 264.72C281.743 251.709 292.147 236.261 299.245 219.259C306.343 202.256 309.996 184.033 309.996 165.629L309.996 165.629Z" stroke="url(#paint1_linear_4723_31583)" stroke-width="4.16326" stroke-dasharray="0.18 1.83"/>
<defs>
<linearGradient id="paint0_linear_4723_31583" x1="168" y1="0" x2="168" y2="336" gradientUnits="userSpaceOnUse">
<stop stop-color="#C0C5DD" stop-opacity="0"/>
<stop offset="0.481612" stop-color="#C0C5DD"/>
<stop offset="1" stop-color="#C0C5DD" stop-opacity="0"/>
</linearGradient>
<linearGradient id="paint1_linear_4723_31583" x1="187.424" y1="72.5" x2="167.385" y2="310.093" gradientUnits="userSpaceOnUse">
<stop offset="0.0156511" stop-color="#2B2B6F" stop-opacity="0"/>
<stop offset="0.368028" stop-color="#7878C7"/>
<stop offset="1" stop-color="#E8E8F7"/>
</linearGradient>
</defs>
</svg>
